<?xml version="1.0" standalone="no"?>
<!DOCTYPE svg PUBLIC "-//W3C//DTD SVG 20010904//EN"
 "http://www.w3.org/TR/2001/REC-SVG-20010904/DTD/svg10.dtd">
<svg version="1.0" xmlns="http://www.w3.org/2000/svg"
 width="500.000000pt" height="500.000000pt" viewBox="0 0 500.000000 500.000000"
 preserveAspectRatio="xMidYMid meet">
<metadata>
Created by potrace 1.11, written by Peter Selinger 2001-2013
</metadata>
<g transform="translate(0.000000,500.000000) scale(0.100000,-0.100000)"
fill="#000000" stroke="none">
<path d="M2338 4475 c-2 -1 -34 -5 -73 -8 -38 -4 -81 -8 -95 -11 -14 -3 -38
-7 -55 -10 -168 -28 -372 -98 -538 -184 -295 -152 -541 -374 -724 -654 -56
-85 -163 -285 -163 -304 0 -3 -6 -20 -14 -37 -18 -38 -63 -176 -70 -209 -2
-13 -7 -30 -10 -38 -3 -8 -8 -26 -10 -40 -3 -14 -10 -52 -17 -85 -6 -33 -12
-74 -13 -90 -1 -17 -4 -35 -8 -40 -7 -13 -2 -423 6 -455 4 -14 8 -41 11 -60 2
-19 5 -36 6 -37 2 -4 4 -11 14 -63 11 -54 8 -45 24 -100 7 -25 21 -68 31 -97
10 -28 16 -54 13 -57 -4 -3 -1 -6 5 -6 7 0 12 -6 12 -14 0 -8 13 -44 30 -80
29 -66 29 -66 7 -67 -12 -1 -33 -2 -47 -4 -26 -3 -102 -9 -255 -20 -49 -4 -91
-8 -93 -10 -2 -2 4 -15 13 -29 9 -14 13 -31 9 -37 -4 -8 -3 -9 4 -5 7 4 20 -9
32 -31 11 -21 38 -67 60 -102 22 -34 40 -65 40 -67 0 -2 11 -20 25 -40 20 -30
23 -40 14 -58 -20 -38 -202 -331 -216 -348 -23 -27 -3 -28 152 -13 39 4 93 8
120 9 28 1 56 5 62 9 8 5 13 3 13 -4 0 -7 4 -8 13 -2 18 14 65 15 73 1 5 -7 3
-8 -7 -3 -11 7 -12 6 -3 -6 9 -12 11 -117 3 -144 -6 -20 20 -74 41 -85 24 -13
141 -19 133 -7 -9 15 31 6 43 -10 12 -15 13 -15 8 -2 -4 12 2 18 25 21 16 2
28 1 25 -3 -2 -4 0 -11 6 -14 6 -4 9 -1 8 5 -4 17 33 22 51 7 12 -9 13 -9 7 1
-7 12 -3 13 104 16 25 1 50 5 57 9 6 4 15 2 19 -4 4 -7 9 -8 13 -1 8 13 102
19 121 7 9 -5 11 -4 6 3 -5 8 3 11 26 8 18 -2 40 0 49 4 8 5 21 5 29 0 9 -5
19 -5 27 2 7 5 32 8 57 7 24 -2 42 -1 40 2 -2 3 28 6 66 5 39 -1 70 2 70 7 0
4 9 3 19 -3 11 -5 22 -6 25 -2 3 5 27 9 53 11 26 1 57 3 68 5 11 2 26 -2 34
-8 11 -8 13 -8 8 0 -4 8 5 13 27 16 22 2 32 0 28 -7 -3 -6 0 -6 9 1 8 6 21 11
29 12 78 2 122 7 126 14 3 4 14 3 25 -2 13 -7 25 -7 38 0 26 13 34 13 25 -2
-5 -7 -3 -8 7 -2 18 11 29 13 129 18 47 3 85 5 85 6 0 1 12 3 28 5 19 3 25 0
20 -8 -4 -7 0 -6 10 2 9 7 26 11 37 8 11 -3 20 0 20 5 0 7 5 6 14 -1 9 -8 16
-8 20 -2 4 5 24 9 45 9 22 0 44 3 49 6 6 3 14 2 17 -4 4 -7 11 -8 18 -2 19 15
87 22 87 8 0 -7 3 -8 8 -1 4 6 16 10 27 10 11 0 32 3 48 7 18 4 27 3 27 -5 0
-8 3 -9 8 -1 4 6 30 11 57 12 59 3 126 12 137 18 5 3 8 0 8 -7 0 -8 4 -8 16 2
13 10 17 10 24 0 5 -9 9 -9 11 -3 2 6 38 13 80 15 42 2 82 7 88 11 6 4 11 1
11 -6 0 -10 3 -9 9 1 8 12 12 12 24 2 11 -9 17 -9 22 -1 4 7 16 10 26 7 10 -3
22 -1 25 4 3 6 12 5 22 -3 9 -7 13 -8 9 -2 -4 7 6 11 29 12 24 1 33 -2 29 -11
-4 -7 0 -4 7 5 9 11 19 14 28 8 8 -5 19 -5 25 -1 17 14 115 20 115 7 0 -6 4
-5 9 3 5 8 19 12 35 9 15 -3 26 -1 26 6 0 6 5 4 10 -4 5 -8 10 -10 10 -4 0 14
30 14 30 0 0 -7 3 -7 8 1 10 16 145 26 135 10 -5 -8 -2 -8 9 1 22 18 58 23 58
9 0 -8 3 -9 8 -1 7 10 47 16 133 18 33 1 45 5 42 14 -3 6 0 12 6 12 21 0 33
43 37 133 3 51 7 98 9 105 3 9 19 13 42 12 21 -1 40 -1 43 0 3 1 26 3 52 5 25
1 54 5 63 8 10 5 14 3 9 -5 -5 -7 -3 -8 5 -4 7 5 31 10 54 12 23 2 53 6 65 9
17 4 22 2 16 -6 -5 -8 -3 -9 7 -3 8 5 23 9 34 10 52 3 54 4 48 21 -4 10 -20
37 -35 59 -15 23 -28 46 -28 52 0 6 -4 12 -8 14 -5 2 -24 29 -43 62 -19 32
-44 75 -57 95 -33 53 -37 64 -24 69 7 2 12 10 12 18 0 8 4 14 8 14 5 0 14 16
22 35 8 19 17 35 22 35 4 0 8 7 8 15 0 8 5 15 10 15 6 0 10 5 10 11 0 6 12 30
28 53 15 22 33 53 41 68 8 15 18 25 23 22 5 -3 7 -2 6 3 -4 14 13 53 23 53 5
0 9 7 9 16 0 16 -28 16 -230 -1 -25 -2 -82 -6 -126 -10 -45 -3 -96 -8 -113
-10 -35 -5 -35 -5 -20 49 15 54 20 77 24 106 2 14 4 25 5 25 1 0 3 9 15 80 10
59 17 171 17 280 0 182 -13 284 -54 445 -16 63 -31 122 -33 130 -2 8 -4 16 -5
18 -2 1 -4 7 -5 12 -1 6 -4 12 -5 15 -1 3 -3 8 -5 13 -1 4 -7 21 -14 37 -15
39 -20 54 -21 60 0 15 -134 263 -173 321 -257 383 -611 645 -1052 780 -44 14
-95 27 -114 30 -19 3 -45 10 -58 15 -13 5 -27 8 -31 7 -4 -1 -27 2 -52 6 -25
4 -58 10 -75 13 -32 5 -332 13 -337 8z"/>
<path d="M3905 804 c-19 -34 -29 -41 -77 -46 -25 -3 -22 -21 6 -45 21 -18 23
-28 19 -62 -6 -46 -4 -47 39 -25 29 15 34 15 60 -1 36 -21 43 -15 39 31 -2 27
3 41 23 61 24 24 36 50 18 39 -5 -3 -24 -1 -43 4 -25 7 -38 19 -50 45 l-15 36
-19 -37z"/>
<path d="M3592 769 c-19 -34 -27 -39 -57 -39 -42 0 -44 -8 -9 -41 22 -21 25
-29 19 -67 -6 -42 -6 -44 16 -37 13 4 29 14 36 21 14 14 43 9 43 -8 0 -5 4 -7
9 -3 5 3 12 1 16 -5 15 -24 26 -8 20 31 -5 35 -3 44 19 66 34 34 33 41 -10 45
-24 2 -41 10 -48 23 -31 56 -30 56 -54 14z"/>
<path d="M3285 742 c-16 -29 -27 -37 -55 -40 -47 -5 -50 -10 -18 -37 15 -13
24 -26 21 -29 -4 -3 -1 -6 6 -6 7 0 10 -3 8 -7 -3 -5 -7 -26 -10 -48 -3 -22
-3 -34 -1 -27 3 6 10 10 15 6 5 -3 9 0 9 6 0 7 7 9 16 6 8 -3 13 -2 10 3 -12
19 23 19 58 0 42 -22 50 -24 40 -7 -16 26 -10 73 13 95 32 31 29 39 -16 47
-31 5 -41 12 -51 36 -18 43 -23 43 -45 2z"/>
<path d="M2980 726 c-10 -27 -25 -39 -55 -43 -43 -7 -45 -12 -15 -43 23 -23
29 -37 25 -53 -4 -12 -9 -30 -11 -39 -6 -19 11 -25 21 -8 4 6 11 8 16 5 5 -4
9 -1 9 5 0 7 7 9 16 6 8 -3 12 -2 9 4 -8 14 -4 13 41 -9 21 -11 40 -19 40 -18
1 1 -1 20 -5 42 -6 35 -3 43 22 70 16 16 26 30 21 31 -5 1 -25 5 -44 8 -28 5
-38 13 -47 36 -14 36 -30 39 -43 6z"/>
<path d="M2681 716 c-6 -7 -8 -15 -5 -18 9 -10 -48 -48 -72 -48 -16 0 -22 -5
-21 -19 0 -11 4 -18 8 -16 3 3 14 -4 23 -14 13 -14 15 -28 10 -62 l-7 -43 26
17 c19 12 27 13 30 4 3 -7 6 -5 6 5 1 10 8 15 19 13 9 -2 21 -4 25 -4 5 -1 5
-7 1 -13 -4 -7 -4 -10 1 -6 4 4 16 3 26 -3 22 -11 24 -1 10 48 -7 26 -6 33 7
39 10 4 20 7 24 6 4 -1 5 5 2 13 -4 8 -1 15 5 15 6 0 11 5 11 10 0 6 -13 10
-30 10 -32 0 -70 30 -70 54 0 21 -16 28 -29 12z"/>
<path d="M2354 665 c-13 -29 -23 -36 -55 -41 -22 -4 -39 -9 -39 -11 0 -3 12
-19 26 -36 21 -25 24 -36 19 -68 l-7 -39 43 19 c32 15 46 17 60 8 10 -6 16
-14 13 -18 -2 -4 5 -5 16 -2 17 5 20 11 15 42 -4 31 -1 41 20 61 32 30 32 40
-2 40 -36 0 -47 8 -67 48 -9 17 -18 32 -21 32 -2 0 -12 -16 -21 -35z"/>
<path d="M2046 636 c-13 -28 -23 -35 -56 -41 -22 -4 -40 -9 -40 -12 0 -3 13
-17 30 -33 16 -15 27 -29 25 -31 -2 -3 -6 -19 -10 -37 -4 -27 -2 -32 15 -32
11 0 20 5 20 11 0 7 10 9 28 5 20 -5 23 -4 12 4 -13 8 -13 10 1 10 9 0 22 -7
29 -15 7 -8 18 -15 25 -15 16 0 25 46 12 59 -13 13 11 43 27 34 6 -3 8 -2 3 2
-4 5 0 17 10 27 13 14 13 18 2 19 -48 3 -64 8 -81 29 -10 12 -18 28 -18 36 0
25 -17 15 -34 -20z"/>
<path d="M1738 606 c-14 -27 -23 -34 -58 -40 l-42 -6 30 -35 c27 -29 29 -38
22 -69 -8 -35 -7 -36 18 -31 15 2 28 9 30 15 6 16 31 12 62 -10 34 -24 39 -20
30 28 -5 32 -2 41 23 65 16 16 26 31 24 33 -4 4 -36 10 -70 13 -4 1 -15 17
-24 36 -9 19 -20 35 -23 35 -3 0 -14 -15 -22 -34z"/>
<path d="M1436 595 c-9 -13 -16 -29 -16 -35 0 -9 -27 -15 -57 -11 -24 3 -24
-20 1 -50 22 -26 25 -37 19 -72 l-6 -41 38 24 c37 23 38 23 71 5 41 -22 50
-16 36 24 -10 28 -8 34 20 61 37 37 30 46 -33 49 -9 1 -24 17 -33 36 -9 19
-18 35 -20 35 -2 0 -11 -11 -20 -25z"/>
<path d="M1123 556 c-16 -34 -40 -44 -85 -37 -13 2 -9 -16 7 -29 8 -7 15 -19
15 -26 0 -8 4 -13 9 -12 8 3 13 -5 10 -14 -6 -24 -7 -68 -1 -68 4 0 17 7 28
15 22 15 40 14 86 -4 l28 -10 -4 42 c-4 35 0 46 22 65 28 25 24 34 -16 40 -31
4 -52 19 -52 37 0 7 -7 18 -15 25 -12 10 -17 6 -32 -24z"/>
</g>
</svg>
